<?xml version="1.0" encoding="UTF-8" standalone="no"?>
<svg
   xmlns:dc="http://purl.org/dc/elements/1.1/"
   xmlns:cc="http://creativecommons.org/ns#"
   xmlns:rdf="http://www.w3.org/1999/02/22-rdf-syntax-ns#"
   xmlns:svg="http://www.w3.org/2000/svg"
   xmlns="http://www.w3.org/2000/svg"
   xmlns:sodipodi="http://sodipodi.sourceforge.net/DTD/sodipodi-0.dtd"
   xmlns:inkscape="http://www.inkscape.org/namespaces/inkscape"
   width="250"
   height="60"
   viewBox="0 0 66.145833 15.875"
   version="1.1"
   id="svg8"
   inkscape:version="1.0.2-2 (e86c870879, 2021-01-15)"
   sodipodi:docname="electrorbit_logo.svg">
  <defs
     id="defs2" />
  <sodipodi:namedview
     id="base"
     pagecolor="#ffffff"
     bordercolor="#666666"
     borderopacity="1.0"
     inkscape:pageopacity="0.0"
     inkscape:pageshadow="2"
     inkscape:zoom="3.959798"
     inkscape:cx="114.10444"
     inkscape:cy="67.975643"
     inkscape:document-units="mm"
     inkscape:current-layer="layer1"
     inkscape:document-rotation="0"
     showgrid="false"
     units="px"
     inkscape:window-width="1920"
     inkscape:window-height="991"
     inkscape:window-x="-9"
     inkscape:window-y="-9"
     inkscape:window-maximized="1" />
  <metadata
     id="metadata5">
    <rdf:RDF>
      <cc:Work
         rdf:about="">
        <dc:format>image/svg+xml</dc:format>
        <dc:type
           rdf:resource="http://purl.org/dc/dcmitype/StillImage" />
        <dc:title></dc:title>
      </cc:Work>
    </rdf:RDF>
  </metadata>
  <g
     inkscape:label="Capa 1"
     inkscape:groupmode="layer"
     id="layer1">
    <path
       style="fill:#ffffff;fill-opacity:1;stroke-width:0.117903"
       d="m 12.723741,12.539119 c -1.5653,-0.30016 -2.400306,-1.079318 -2.554819,-2.383944 -0.154523,-1.3047036 0.495858,-2.506716 1.583367,-2.9263234 0.664997,-0.2565833 1.996192,-0.2828093 2.661682,-0.052434 1.050753,0.3637361 1.721877,1.3430467 1.726369,2.5191291 l 0.0026,0.6779423 h -1.997392 c -2.093667,0 -2.352984,0.06444 -1.936282,0.48114 0.328918,0.328918 1.324321,0.480151 2.273898,0.345477 0.440189,-0.06243 0.887602,-0.146993 0.994254,-0.187919 0.165429,-0.06348 0.19391,0.02063 0.19391,0.572673 v 0.647084 l -0.514696,0.129602 c -0.613259,0.154421 -2.018684,0.257004 -2.43288,0.177578 z M 14.288657,8.9510551 C 14.123262,8.31858 12.852001,8.0967712 12.310121,8.6058404 c -0.535378,0.5029615 -0.40817,0.5886136 0.874194,0.5886136 1.122091,0 1.16549,-0.00956 1.104342,-0.2433989 z m 4.724474,3.5459609 c -1.460266,-0.30726 -2.280687,-1.283212 -2.280687,-2.7130471 0,-1.1582435 0.514737,-1.9906167 1.520129,-2.4581789 0.842817,-0.3919559 2.3419,-0.436659 3.225468,-0.096183 l 0.560039,0.215806 v 0.7102817 c 0,0.607876 -0.02769,0.6996563 -0.192034,0.6365901 -0.569828,-0.218663 -1.297712,-0.32805 -1.837675,-0.2761663 -0.808123,0.077654 -1.271575,0.552348 -1.271575,1.3024297 0,0.6278638 0.231841,0.9680428 0.783925,1.1502468 0.532915,0.175879 1.643321,0.08643 2.144532,-0.172761 l 0.372827,-0.192797 v 0.756595 0.756596 l -0.451104,0.180497 c -0.571382,0.228621 -1.9346,0.334599 -2.573845,0.200093 z m 5.559865,0.01205 C 23.482258,12.230665 23.217111,11.710211 23.217111,9.8476158 V 8.4870344 H 22.80445 22.39179 V 7.8460376 c 0,-0.636996 0.0024,-0.6412281 0.383185,-0.677944 l 0.383185,-0.036946 0.03486,-0.7958455 0.03486,-0.7958455 h 0.937837 0.937838 v 0.8253212 0.8253211 h 0.589515 0.589514 V 7.8385661 8.4870334 H 25.69307 25.103555 v 1.1116565 c 0,1.3503491 0.118045,1.5394401 0.905621,1.4506681 l 0.509215,-0.0574 v 0.680321 c 0,0.460675 -0.05113,0.699942 -0.158371,0.741093 -0.320854,0.123124 -1.443924,0.183257 -1.787029,0.09568 z m 29.567139,-0.0035 c -0.209127,-0.05319 -0.512334,-0.183283 -0.673794,-0.289076 -0.365562,-0.239525 -0.537665,-0.244485 -0.537665,-0.0155 0,0.141483 -0.176855,0.176855 -0.884273,0.176855 H 51.16013 V 8.3691329 4.3604303 h 0.943225 0.943223 v 1.5940861 1.5940865 l 0.501088,-0.2605235 c 0.377425,-0.1962292 0.704771,-0.2605246 1.32641,-0.2605246 1.264982,0 2.025192,0.4749072 2.525008,1.5773843 0.605437,1.335456 0.06361,3.0260969 -1.171801,3.6563599 -0.521178,0.265886 -1.535491,0.384588 -2.087148,0.244253 z m 0.913156,-1.602724 c 0.439009,-0.227019 0.587154,-0.509321 0.587154,-1.1188576 0,-0.6095357 -0.148145,-0.8918384 -0.587154,-1.1188577 -0.643074,-0.3325463 -1.600712,-0.1268745 -1.885315,0.4049091 -0.156247,0.2919508 -0.156561,1.1353602 -4.71e-4,1.4269052 0.285725,0.533883 1.240825,0.739455 1.885845,0.405902 z m 7.986351,1.569198 C 62.52021,12.334055 62.064852,11.838036 61.894496,11.224636 61.82752,10.983474 61.772423,10.26886 61.772062,9.6366061 l -6.59e-4,-1.1495542 h -0.353709 c -0.350136,0 -0.353708,-0.00658 -0.353708,-0.6484673 0,-0.6419177 0.0036,-0.6484672 0.353708,-0.6484672 h 0.353709 V 6.3600277 5.529938 l 0.9727,0.034243 0.972701,0.034243 0.03486,0.7958454 0.03486,0.7958455 h 0.584129 0.584128 V 7.8385826 8.4870498 H 64.365265 63.77575 v 1.1645927 c 0,1.3776525 0.07754,1.4991785 0.885917,1.3883785 l 0.528919,-0.07249 v 0.695392 0.695394 l -0.595318,0.127673 c -0.692964,0.148613 -0.952458,0.146288 -1.555631,-0.01395 z M 1.1970864,8.5754634 1.2281951,4.7730904 3.9104891,4.7414062 6.5927832,4.709722 V 5.5372563 6.3647911 H 4.8831897 3.1735957 V 7.0722086 7.7796282 H 4.4115775 5.6495594 V 8.545998 9.3123679 H 4.4115775 3.1735957 v 0.7074171 0.707419 h 1.709594 1.709594 v 0.825321 0.825321 H 3.8793806 1.1659773 Z M 7.418105,8.3691329 V 4.3604303 h 0.9432243 0.943224 V 8.3691329 12.377836 H 8.3613293 7.418105 Z m 19.689806,1.414836 V 7.190102 h 0.943224 c 0.877199,0 0.943225,0.017193 0.943225,0.245631 0,0.1350971 0.03979,0.2251479 0.08842,0.2001129 0.549223,-0.2827148 1.069414,-0.4635109 1.505662,-0.523306 l 0.528166,-0.072392 v 0.721197 c 0,0.7927172 0.06233,0.734808 -0.96923,0.9004444 -0.241265,0.038744 -0.599396,0.2056821 -0.795846,0.3709835 l -0.357175,0.3005469 v 1.5222583 1.522259 h -0.943222 -0.943224 z m 19.454001,0 V 7.190102 h 0.943224 c 0.877198,0 0.943224,0.017193 0.943224,0.245631 0,0.1350971 0.03979,0.2251479 0.08842,0.2001129 0.550634,-0.2834403 1.070379,-0.4636435 1.511726,-0.5241363 l 0.53423,-0.073224 -0.03554,0.7537527 -0.03554,0.7537506 -0.635224,0.07753 c -0.349373,0.042639 -0.773824,0.180904 -0.943224,0.3072554 -0.302545,0.2256586 -0.308582,0.2582297 -0.340804,1.8383987 l -0.0328,1.608668 h -0.998849 -0.998848 z m 11.908207,0 V 7.190102 h 1.002176 1.002175 v 2.5938669 2.5938671 h -1.002175 -1.002176 z m 0.707418,-3.3821002 c -0.71424,-0.2709959 -0.95155,-1.1814707 -0.434538,-1.6671775 0.609903,-0.572974 1.731471,-0.1357847 1.731471,0.6749312 0,0.6200491 -0.755164,1.197804 -1.296933,0.9922463 z"
       id="path915" />
    <circle
       style="fill:#ffffff;fill-opacity:1;stroke:#000000;stroke-width:0;stroke-linejoin:round;stroke-opacity:1;paint-order:markers stroke fill"
       id="path867"
       cx="38.765724"
       cy="8.0369253"
       r="2.3479285" />
    <g
       id="g878"
       transform="matrix(1.1832083,0,0,1.1832083,-4.7687941,-8.1889398)"
       style="fill:#6a6a6a;fill-opacity:0;stroke:#ffffff;stroke-width:0.264583;stroke-miterlimit:4;stroke-dasharray:none;stroke-opacity:1">
      <ellipse
         style="opacity:1;fill:#6a6a6a;fill-opacity:0;stroke:#ffffff;stroke-width:0.264583;stroke-linejoin:round;stroke-miterlimit:4;stroke-dasharray:none;stroke-opacity:1;paint-order:markers stroke fill"
         id="path869"
         cx="36.835533"
         cy="13.628094"
         rx="3.7882411"
         ry="3.7242057" />
      <ellipse
         style="opacity:1;fill:#6a6a6a;fill-opacity:0;stroke:#ffffff;stroke-width:0.264583;stroke-linejoin:round;stroke-miterlimit:4;stroke-dasharray:none;stroke-opacity:1;paint-order:markers stroke fill"
         id="ellipse871"
         cx="36.835533"
         cy="13.628094"
         rx="4.8125024"
         ry="4.731153" />
      <ellipse
         style="opacity:1;fill:#6a6a6a;fill-opacity:0;stroke:#ffffff;stroke-width:0.264583;stroke-linejoin:round;stroke-miterlimit:4;stroke-dasharray:none;stroke-opacity:1;paint-order:markers stroke fill"
         id="ellipse873"
         cx="36.835533"
         cy="13.628094"
         rx="5.8537216"
         ry="5.7547717" />
    </g>
    <circle
       style="fill:#ffffff;fill-opacity:1;stroke:#000000;stroke-width:0;stroke-linejoin:round;stroke-opacity:1;paint-order:markers stroke fill"
       id="circle880"
       cx="41.120644"
       cy="1.5521697"
       r="0.67083669" />
  </g>
</svg>
