<?xml version="1.0" encoding="UTF-8" standalone="no"?>
<svg
   xmlns:dc="http://purl.org/dc/elements/1.1/"
   xmlns:cc="http://creativecommons.org/ns#"
   xmlns:rdf="http://www.w3.org/1999/02/22-rdf-syntax-ns#"
   xmlns:svg="http://www.w3.org/2000/svg"
   xmlns="http://www.w3.org/2000/svg"
   xmlns:sodipodi="http://sodipodi.sourceforge.net/DTD/sodipodi-0.dtd"
   xmlns:inkscape="http://www.inkscape.org/namespaces/inkscape"
   width="192.944"
   height="134.407"
   viewBox="0 0 51.049765 35.561852"
   version="1.1"
   id="svg8"
   inkscape:version="1.0.2-2 (e86c870879, 2021-01-15)"
   sodipodi:docname="electron_valency_logo.svg">
  <defs
     id="defs2" />
  <sodipodi:namedview
     id="base"
     pagecolor="#ffffff"
     bordercolor="#666666"
     borderopacity="1.0"
     inkscape:pageopacity="0.0"
     inkscape:pageshadow="2"
     inkscape:zoom="2.8"
     inkscape:cx="85.797464"
     inkscape:cy="88.488507"
     inkscape:document-units="mm"
     inkscape:current-layer="layer1"
     inkscape:document-rotation="0"
     showgrid="false"
     units="px"
     inkscape:window-width="1920"
     inkscape:window-height="991"
     inkscape:window-x="-9"
     inkscape:window-y="-9"
     inkscape:window-maximized="1" />
  <metadata
     id="metadata5">
    <rdf:RDF>
      <cc:Work
         rdf:about="">
        <dc:format>image/svg+xml</dc:format>
        <dc:type
           rdf:resource="http://purl.org/dc/dcmitype/StillImage" />
        <dc:title />
      </cc:Work>
    </rdf:RDF>
  </metadata>
  <g
     inkscape:label="Capa 1"
     inkscape:groupmode="layer"
     id="layer1">
    <path
       style="fill:#000000;fill-opacity:1;stroke-width:0.155067"
       d="M 6.0829143,35.421825 C 3.9317135,35.256406 1.0714924,34.69839 0.45588631,34.324017 -0.02485932,34.031658 -0.04499211,33.981909 0.03706391,33.289077 0.25283261,31.467253 2.4475533,26.177496 3.699515,24.461778 c 0.3778214,-0.517777 0.578966,-0.659034 0.9384403,-0.659034 0.3790232,0 0.6008375,0.179626 1.2925245,1.0467 0.4592396,0.575686 1.0620934,1.383045 1.3396749,1.794131 0.2879622,0.426458 0.5896733,0.714821 0.7025788,0.671496 C 8.412074,27.14648 14.417963,23.279639 14.371103,23.195534 13.646027,21.894171 12.653032,19.525409 12.382987,18.452941 11.921588,16.620525 11.88509,13.617953 12.301937,11.785071 13.571531,6.2025919 17.727068,1.8697498 23.262044,0.3573282 24.373425,0.0536447 24.942227,0 27.050816,0 c 2.10859,0 2.677392,0.053642 3.788772,0.3573282 3.305377,0.9031877 6.222114,2.8592177 8.230887,5.5198167 0.360549,0.477544 0.682918,0.868258 0.716377,0.868258 0.03346,0 2.09233,-1.25604 4.575267,-2.791201 2.482937,-1.535161 4.637126,-2.7912015 4.787091,-2.7912015 0.316772,0 1.258439,0.9933685 1.638654,1.7286255 l 0.261983,0.506618 -0.524577,0.438154 c -0.288518,0.240983 -2.408638,1.631769 -4.711379,3.090634 -2.302741,1.458864 -4.271995,2.730513 -4.376121,2.825885 -0.148312,0.135842 -0.126198,0.3762131 0.102079,1.1096901 0.398894,1.281649 0.679594,3.801501 0.559957,5.026758 -0.405052,4.14831 -1.866312,7.246573 -4.689356,9.942692 -4.479737,4.278325 -11.019856,5.372404 -16.70517,2.794559 -1.054432,-0.478101 -2.55646,-1.447114 -3.424521,-2.209283 -0.293216,-0.257446 -0.630232,-0.445141 -0.748928,-0.417103 -0.387859,0.09162 -6.6054279,4.077192 -6.6886339,4.287529 -0.04456,0.112641 0.3373669,0.951929 0.8487269,1.865073 1.440404,2.572149 1.268738,3.159266 -0.9748029,3.333922 -1.3990313,0.108917 -1.3657406,0.109505 -3.634207,-0.06493 z"
       id="path847" />
  </g>
</svg>
