<?xml version="1.0" encoding="UTF-8" standalone="no"?>
<svg
   xmlns:dc="http://purl.org/dc/elements/1.1/"
   xmlns:cc="http://creativecommons.org/ns#"
   xmlns:rdf="http://www.w3.org/1999/02/22-rdf-syntax-ns#"
   xmlns:svg="http://www.w3.org/2000/svg"
   xmlns="http://www.w3.org/2000/svg"
   xmlns:sodipodi="http://sodipodi.sourceforge.net/DTD/sodipodi-0.dtd"
   xmlns:inkscape="http://www.inkscape.org/namespaces/inkscape"
   width="400"
   height="400"
   viewBox="0 0 105.83333 105.83334"
   version="1.1"
   id="svg8"
   inkscape:version="1.0.2-2 (e86c870879, 2021-01-15)"
   sodipodi:docname="home_icon.svg">
  <defs
     id="defs2" />
  <sodipodi:namedview
     id="base"
     pagecolor="#ffffff"
     bordercolor="#666666"
     borderopacity="1.0"
     inkscape:pageopacity="0.0"
     inkscape:pageshadow="2"
     inkscape:zoom="1.4"
     inkscape:cx="47.54345"
     inkscape:cy="123.35182"
     inkscape:document-units="mm"
     inkscape:current-layer="layer1"
     inkscape:document-rotation="0"
     showgrid="false"
     units="px"
     inkscape:window-width="1920"
     inkscape:window-height="991"
     inkscape:window-x="-9"
     inkscape:window-y="-9"
     inkscape:window-maximized="1" />
  <metadata
     id="metadata5">
    <rdf:RDF>
      <cc:Work
         rdf:about="">
        <dc:format>image/svg+xml</dc:format>
        <dc:type
           rdf:resource="http://purl.org/dc/dcmitype/StillImage" />
        <dc:title></dc:title>
      </cc:Work>
    </rdf:RDF>
  </metadata>
  <g
     inkscape:label="Capa 1"
     inkscape:groupmode="layer"
     id="layer1">
    <path
       style="fill:#ffffff;stroke-width:0.0423212;fill-opacity:1"
       d="m 18.882122,99.96197 c -0.727234,-0.176306 -1.298953,-0.707043 -1.514946,-1.406346 -0.08337,-0.269916 -0.08402,-0.44797 -0.08402,-23.029238 V 52.76917 l 17.79602,-15.761186 c 9.78781,-8.668654 17.813701,-15.767082 17.835315,-15.774286 0.035,-0.01172 35.570669,31.428847 35.647728,31.539653 0.01723,0.02477 0.02675,10.281475 0.02116,22.792682 l -0.01013,22.747649 -0.100476,0.268536 c -0.282172,0.754207 -0.870623,1.26226 -1.628473,1.405983 -0.125579,0.02382 -4.665654,0.03949 -11.438727,0.03949 H 64.175066 V 90.020812 c 0,-7.123217 -0.01344,-10.071507 -0.04662,-10.231151 -0.151404,-0.728256 -0.715428,-1.337046 -1.454021,-1.569427 l -0.298004,-0.09376 h -9.458789 -9.45879 l -0.298005,0.09376 c -0.738593,0.232381 -1.302615,0.841171 -1.45402,1.569427 -0.03318,0.159644 -0.04663,3.107934 -0.04663,10.231151 V 100.0277 l -11.268019,-0.004 c -9.451866,-0.003 -11.307027,-0.013 -11.510029,-0.06219 z M 4.7945889,51.720839 C 3.3418961,50.08138 2.1618142,48.724455 2.1721854,48.705454 2.1825626,48.686445 13.561667,38.600487 27.459102,26.292196 l 25.268062,-22.3787093 0.09344,0.1162249 0.09344,0.1162249 0.09973,-0.093688 c 0.05485,-0.051532 0.112917,-0.093688 0.12905,-0.093688 0.02317,0 7.984551,7.0350095 11.518908,10.1785945 0.395704,0.351952 9.318071,8.254366 19.827484,17.56092 10.509413,9.306554 19.131994,16.943033 19.161294,16.969959 0.0417,0.03833 -0.52144,0.698362 -2.59665,3.043339 -1.457454,1.646912 -2.666442,2.98871 -2.686646,2.981769 -0.02692,-0.0093 -42.482713,-37.601491 -45.047661,-39.887203 L 52.930645,14.459348 30.212433,34.580513 C 17.717418,45.647155 7.4810895,54.701678 7.4650366,54.701678 c -0.016054,0 -1.2177549,-1.341379 -2.6704477,-2.980839 z M 17.283158,19.873428 v -9.524374 h 6.397289 6.39729 l -0.02807,2.147801 c -0.01544,1.181292 -0.04057,2.895508 -0.05584,3.809369 l -0.02777,1.661566 -6.285574,5.681164 c -3.457065,3.124639 -6.310716,5.696391 -6.341446,5.715005 -0.04622,0.02799 -0.05587,-1.612118 -0.05587,-9.490531 z"
       id="path847" />
  </g>
</svg>
